PathFileType	4	(X/Y/Z)	Patient4_TMGait_0pt3_03_left_17.trc.trc
DataRate	CameraRate	NumFrames	NumMarkers	Units	OrigDataRate	OrigDataStartFrame	OrigNumFrames
411.764705882353	411.764705882353	5	33	mm	411.764705882353	1	       141
Frame#	Time	Sacral			L.Shoulder			Chest			R.Shoulder			Neck			R.ASIS			L.ASIS			R.Thigh.Superior			R.Thigh.Lateral			R.Thigh.Inferior			R.Patella			L.Thigh.Superior			L.Thigh.Lateral			L.Thigh.Inferior			L.Patella			L.Shank.Superior			L.Shank.Lateral			L.Shank.Inferior			R.Shank.Superior			R.Shank.Lateral			R.Shank.Inferior			R.Heel			R.Midfoot.Superior			R.Midfoot.Lateral			R.Toe			L.Heel			L.Midfoot.Lateral			L.Midfoot.Superior			L.Toe			L.Elbow			L.Wrist			R.Elbow			R.Wrist			
		X1	Y1	Z1	X2	Y2	Z2	X3	Y3	Z3	X4	Y4	Z4	X5	Y5	Z5	X6	Y6	Z6	X7	Y7	Z7	X8	Y8	Z8	X9	Y9	Z9	X10	Y10	Z10	X11	Y11	Z11	X12	Y12	Z12	X13	Y13	Z13	X14	Y14	Z14	X15	Y15	Z15	X16	Y16	Z16	X17	Y17	Z17	X18	Y18	Z18	X19	Y19	Z19	X20	Y20	Z20	X21	Y21	Z21	X22	Y22	Z22	X23	Y23	Z23	X24	Y24	Z24	X25	Y25	Z25	X26	Y26	Z26	X27	Y27	Z27	X28	Y28	Z28	X29	Y29	Z29	X30	Y30	Z30	X31	Y31	Z31	X32	Y32	Z32	X33	Y33	Z33	

1	31.180000000000	566.138293522306	1012.383375886512	467.235207470344	792.479894636020	1423.663639780618	289.645272706785	888.086321051647	1342.693813596574	449.404025012966	816.448468125557	1426.394505107273	623.979698940484	781.981113683351	1484.491113961329	452.961723968429	795.162749979724	927.469853090979	578.314643621898	774.223283368698	955.144885144525	307.152109480279	841.309152155201	736.274152005918	538.691654398196	766.881214340995	621.939741772718	594.157221642483	845.906542875462	576.212895778492	510.060522280872	853.165161977084	481.984519857740	514.546068917806	835.370855816169	756.225393847897	326.283208896059	768.072732513807	636.916709900018	249.276841810604	862.700122411223	559.886667873904	307.626182198317	861.540002701051	471.080490387993	298.909767414909	790.484577893181	413.442684459031	291.534535132605	648.048240381170	380.010651893800	239.531725732288	626.315608483154	251.578703580586	293.075535943211	811.242978152368	395.606679960763	517.429100236262	731.592227289034	297.726441711960	579.237836445349	758.064278731048	202.081058567502	509.777590487294	605.215892435874	46.680903951514	483.088068056314	779.501427881417	95.036468879418	509.757244751900	691.803881848879	38.275927242423	552.731833011772	899.050105961232	38.091031308997	533.921331055467	431.504441238563	194.540761540689	324.933990892759	490.292719728366	147.366438081007	246.729439136680	595.353218294137	153.826864900529	271.023345142329	671.468469759956	40.055740522315	245.552913774210	726.775980450505	1075.056615915703	179.304383305232	769.902704018226	819.042242019388	158.618161738896	761.285979950778	1094.932670627592	770.934945425670	889.428333684421	871.062103051079	810.886769995010	
2	31.182428571429	565.855831039753	1012.199320004263	467.492116479787	792.074591848621	1423.567516220883	289.889640597545	887.812803739400	1342.570137816338	449.546834918144	816.330659270216	1426.210636625450	624.206471939089	781.734841566984	1484.357859057631	453.227022921181	794.631425390818	927.178812420643	578.418134333056	774.014394966113	955.115389481811	307.348981339023	841.287431568674	736.193385761339	538.993306145162	766.805838415293	621.792740633665	594.240078735529	845.956996852774	576.133127782048	510.239862647609	853.208409652897	481.820834050806	514.678514340530	835.519204269916	756.537686420847	326.673999074905	768.810059605611	637.119826089838	249.397094663238	863.584824077494	560.333632779574	307.878343144904	862.648920906593	471.436890658487	299.023439540525	791.462553196380	413.700072642789	291.549472063508	648.894338939178	380.560357143869	239.773442323957	627.211807423001	252.157064201653	293.083540917250	811.100420122900	395.453292941277	517.514835020774	731.287973671820	297.690013271837	579.238476142670	757.596698849277	202.032930630285	509.809754402588	604.502667154827	46.749508391001	483.062946181817	778.822908149856	95.018794420639	509.721761234735	691.073292540114	38.312271304133	552.711903090869	898.327935030102	38.078420479959	533.958294082355	432.268745511915	195.235864400325	325.294093606969	490.829807867804	148.223642827686	246.802676509293	595.949240685483	154.467150298694	270.888366235539	671.820494315612	40.666737742921	244.876508993806	725.082513084226	1075.206784887323	179.525981839587	766.591443361618	818.973357471826	158.854501596993	762.346744587500	1094.431028046669	771.080993820958	891.479313167196	871.186091948370	811.264500810162	
3	31.184857142857	565.576255908662	1012.013061533986	467.741683689393	791.669148084313	1423.471880265653	290.131459633621	887.538461857862	1342.446817865013	449.685642924516	816.214667424489	1426.028671042967	624.433981151080	781.483860678854	1484.224885450876	453.488311931185	794.157579167862	926.916571698561	578.547071148102	773.809007194167	955.084385584318	307.542532235887	841.264716335946	736.114689455937	539.289006386938	766.718495092330	621.647478724455	594.343399902261	846.019921271390	576.053493949265	510.407481477122	853.250550163988	481.656316823579	514.802245738633	835.655352576686	756.844001160082	327.055467330684	769.518515210779	637.307033069425	249.517951839841	864.448118513567	560.772981138037	308.125808375618	863.745715087987	471.789130879656	299.129338298227	792.435845941867	413.958166633248	291.558726035757	649.735563410477	381.102520008327	240.008977800624	628.090301691809	252.705100610374	293.091806919132	810.965233372046	395.305613544454	517.588400265615	730.979030087303	297.658719314369	579.240747167593	757.125455011398	201.984508147015	509.835947400602	603.792588590697	46.822317184519	483.032624707688	778.137095166814	95.001602787310	509.685765856915	690.351266838579	38.353474243628	552.704138322137	897.608804746122	38.061375136968	533.984510096281	433.044380469166	195.895759444898	325.648173100077	491.381831802402	149.057599970149	246.867115300825	596.559113985154	155.092190303994	270.746080182869	672.201693530639	41.271504793237	244.194211204991	723.384619080628	1075.363513869426	179.741574836379	763.296628695776	818.918797478099	159.088378216814	763.414397739528	1093.937332197775	771.226796453766	893.533295731843	871.317759964859	811.627782412734	
4	31.187285714286	565.299554339547	1011.824641181815	467.984148792491	791.263318524540	1423.377039354719	290.370923730957	887.263097889726	1342.323428492858	449.820653535299	816.099893639019	1425.847792121496	624.661839892178	781.228280545456	1484.092101955651	453.745904883179	793.737116003592	926.680886048274	578.698601579542	773.603607419740	955.050372398256	307.734350967179	841.240691511104	736.037512351742	539.577725756261	766.621455250567	621.502789505152	594.462309660851	846.090933822052	575.972172210667	510.564731588345	853.290787931764	481.490823440635	514.916587913331	835.778647319900	757.143761173981	327.426737812748	770.198504548006	637.480334300516	249.638484131074	865.289595650321	561.205120663299	308.367857240625	864.828844527097	472.137814112024	299.227361363959	793.403786416780	414.216619802561	291.561856449411	650.572109643044	381.634359376387	240.237058279052	628.954365485175	253.222016187782	293.098629319403	810.835661028936	395.162174979047	517.650376367162	730.665842817378	297.631603943025	579.244659448835	756.650323692817	201.935281599334	509.856740981884	603.084804382305	46.897984595151	482.998792635922	777.445736544640	94.987126518835	509.653964786512	689.635673702982	38.397877298543	552.705808577653	896.892041255800	38.040946644404	534.001559781621	433.833326953745	196.516297352256	325.993792443832	491.951337998049	149.863288853785	246.922344601161	597.185297375724	155.699111514986	270.596299351045	672.615729140650	41.867765305982	243.506946858092	721.681763048768	1075.528054419179	179.950265184535	760.020536854874	818.880071405360	159.320752261270	764.488902237446	1093.451909032877	771.372129329790	895.591120383321	871.457980959189	811.974577250826	
5	31.189714285714	565.025712542921	1011.634099653883	468.219751482411	790.856858350743	1423.283300927873	290.608226805500	886.986514317684	1342.199544450133	449.952071253709	815.985738964443	1425.667183622705	624.889661478104	780.968210693280	1483.959417386537	454.000115661902	793.365940590742	926.469510593322	578.869873139885	773.394683009711	955.011848869835	307.926026329206	841.215042148236	735.961303710783	539.858434885867	766.516989768466	621.357506435821	594.591932529470	846.165652195502	575.887340496781	510.712965800212	853.328327377634	481.324209166549	515.020865665841	835.888435082976	757.436389570920	327.786934670451	770.850432835989	637.641733244853	249.757762327604	866.108845418637	561.630459069370	308.603769090096	865.896768505787	472.483543416115	299.317406413671	794.365704908262	414.475085522880	291.558422704526	651.404173484863	382.153094137267	240.456409876004	629.807272998699	253.707014314913	293.102303488614	810.709946222700	395.021510453808	517.701343721791	730.348858143935	297.607711261271	579.250222915115	756.171081368939	201.884741468883	509.872706646986	602.378462168470	46.975164885977	482.963138968510	776.750579895679	94.977598154619	509.631064191599	688.924382092027	38.443821706512	552.714183729498	896.176970705641	38.018186366649	534.011023822753	434.637565809086	197.093328800249	326.328514709982	492.540872920634	150.635688823985	246.967953500192	597.830250039769	156.285040530232	270.438836106791	673.066262881259	42.453242913876	242.815642403432	719.973409597697	1075.701658093745	180.151155772984	756.765444673068	818.858688620763	159.552584393274	765.570220911840	1092.975084503940	771.516768454724	897.653626126597	871.607628789999	812.302847772538	
